HIERARCHY
ROOT Hips
{
	OFFSET 0.000000 0.000000 0.000000
	CHANNELS 6 Xposition Yposition Zposition Xrotation Yrotation Zrotation
	JOINT LeftUpLeg_virtual
	{
		OFFSET 0.000000 0.000000 0.000000
		CHANNELS 3 Xrotation Yrotation Zrotation
		JOINT LeftUpLeg
		{
			OFFSET 13.026900 -6.336304 -1.092800
			CHANNELS 3 Xrotation Yrotation Zrotation
			JOINT LeftLeg
			{
				OFFSET 0.524474 -46.096886 9.782700
				CHANNELS 3 Xrotation Yrotation Zrotation
				JOINT LeftFoot
				{
					OFFSET -0.524474 -53.427422 -12.948200
					CHANNELS 3 Xrotation Yrotation Zrotation
					JOINT LeftToeBase
					{
						OFFSET 0.192200 -14.009700 16.364100
						CHANNELS 3 Xrotation Yrotation Zrotation
						JOINT LeftToe_End
						{
							OFFSET -1.784700 -0.561700 9.474800
							CHANNELS 3 Xrotation Yrotation Zrotation
							End Site
							{
								OFFSET 0 0 0
							}
						}
					}
				}
			}
		}
	}
	JOINT RightUpLeg_virtual
	{
		OFFSET 0.000000 0.000000 0.000000
		CHANNELS 3 Xrotation Yrotation Zrotation
		JOINT RightUpLeg
		{
			OFFSET -12.883000 -6.336304 -1.092800
			CHANNELS 3 Xrotation Yrotation Zrotation
			JOINT RightLeg
			{
				OFFSET -0.524587 -46.096825 9.782800
				CHANNELS 3 Xrotation Yrotation Zrotation
				JOINT RightFoot
				{
					OFFSET 0.524587 -53.427383 -12.948300
					CHANNELS 3 Xrotation Yrotation Zrotation
					JOINT RightToeBase
					{
						OFFSET -0.192200 -14.009700 16.364100
						CHANNELS 3 Xrotation Yrotation Zrotation
						JOINT RightToe_End
						{
							OFFSET 1.784700 -0.561700 9.474800
							CHANNELS 3 Xrotation Yrotation Zrotation
							End Site
							{
								OFFSET 0 0 0
							}
						}
					}
				}
			}
		}
	}
	JOINT Spine_virtual
	{
		OFFSET 0.000000 0.000000 0.000000
		CHANNELS 3 Xrotation Yrotation Zrotation
		JOINT Spine
		{
			OFFSET 0.072000 7.257294 -0.789700
			CHANNELS 3 Xrotation Yrotation Zrotation
			JOINT Spine1
			{
				OFFSET 0.000000 12.508769 -0.658067
				CHANNELS 3 Xrotation Yrotation Zrotation
				JOINT Spine1_split
				{
					OFFSET 0.000000 12.508769 -0.658067
					CHANNELS 3 Xrotation Yrotation Zrotation
					JOINT Spine2
					{
						OFFSET 0.000000 12.508769 -0.658067
						CHANNELS 3 Xrotation Yrotation Zrotation
						JOINT Neck_virtual
						{
							OFFSET 0.000000 0.000000 0.000000
							CHANNELS 3 Xrotation Yrotation Zrotation
							JOINT Neck
							{
								OFFSET 0.000000 14.033295 7.520400
								CHANNELS 3 Xrotation Yrotation Zrotation
								JOINT Head
								{
									OFFSET 0.000000 8.198502 5.703100
									CHANNELS 3 Xrotation Yrotation Zrotation
									JOINT HeadTop_End
									{
										OFFSET 0.000000 17.760803 13.332701
										CHANNELS 3 Xrotation Yrotation Zrotation
										End Site
										{
											OFFSET 0 0 0
										}
									}
								}
							}
						}
						JOINT LeftShoulder_virtual
						{
							OFFSET 0.000000 0.000000 0.000000
							CHANNELS 3 Xrotation Yrotation Zrotation
							JOINT LeftShoulder
							{
								OFFSET 6.292450 5.785301 -0.669000
								CHANNELS 3 Xrotation Yrotation Zrotation
								JOINT LeftShoulder_split
								{
									OFFSET 6.292450 5.785301 -0.669000
									CHANNELS 3 Xrotation Yrotation Zrotation
									JOINT LeftArm
									{
										OFFSET 13.907140 -6.093903 1.965100
										CHANNELS 3 Xrotation Yrotation Zrotation
										JOINT LeftForeArm
										{
											OFFSET 34.140198 0.000000 0.000000
											CHANNELS 3 Xrotation Yrotation Zrotation
											JOINT LeftHand
											{
												OFFSET 40.960209 0.000000 0.000000
												CHANNELS 3 Xrotation Yrotation Zrotation
												End Site
												{
													OFFSET 0 0 0
												}
											}
										}
									}
								}
							}
						}
						JOINT RightShoulder_virtual
						{
							OFFSET 0.000000 0.000000 0.000000
							CHANNELS 3 Xrotation Yrotation Zrotation
							JOINT RightShoulder
							{
								OFFSET -6.292450 5.785301 -0.669000
								CHANNELS 3 Xrotation Yrotation Zrotation
								JOINT RightShoulder_split
								{
									OFFSET -6.292450 5.785301 -0.669000
									CHANNELS 3 Xrotation Yrotation Zrotation
									JOINT RightArm
									{
										OFFSET -13.907140 -6.093903 1.965100
										CHANNELS 3 Xrotation Yrotation Zrotation
										JOINT RightForeArm
										{
											OFFSET -34.140198 0.000000 0.000000
											CHANNELS 3 Xrotation Yrotation Zrotation
											JOINT RightHand
											{
												OFFSET -40.960209 0.000000 0.000000
												CHANNELS 3 Xrotation Yrotation Zrotation
												End Site
												{
													OFFSET 0 0 0
												}
											}
										}
									}
								}
							}
						}
					}
				}
			}
		}
	}
}
MOTION
Frames: 11
Frame Time: 0.03333333
-0.020663 116.539093 1.126049 0.000000 0.000000 0.000000 1.017207 -6.665701 -1.306694 -14.976365 19.321654 14.384179 14.680126 9.863340 2.984665 -0.874747 2.874770 -12.577731 1.877047 0.348729 -0.824661 0.000000 0.000000 0.000000 1.593392 -5.840123 -1.367328 -13.372680 -21.136242 -4.765152 14.703688 9.317228 -3.075824 -4.710960 1.613270 2.051807 -0.002508 -0.328097 0.399867 0.000000 0.000000 0.000000 1.156609 -7.951050 -1.844558 -0.648768 -0.639792 2.167488 -0.783309 -1.118632 1.010492 1.326621 1.460339 -0.379852 0.000000 0.000000 0.000000 -1.113097 -0.553927 0.906647 -5.287476 0.525391 1.288296 -1.094678 8.067502 0.509873 0.000000 0.000000 0.000000 -1.359327 -0.222315 0.592234 -0.616113 9.878216 -2.739795 -3.566393 -0.027020 -0.560693 42.147806 -65.856643 -27.734938 -0.453280 -27.808825 2.013750 0.000000 0.000000 0.000000 -0.208596 -0.332031 0.426486 3.966669 2.917769 3.757414 0.727371 2.100946 -1.128587 -2.039190 38.421197 65.658807 1.265139 25.403265 1.474968 0.000000 0.000000 0.000000 
0.032616 116.549446 1.224491 0.000000 0.000000 0.000000 0.989830 -6.855983 -1.231151 -14.937361 19.373797 14.286381 14.636324 9.829167 3.011189 -1.055713 2.847220 -12.601011 1.939733 0.325851 -0.805166 0.000000 0.000000 0.000000 1.636847 -5.980532 -1.285641 -13.358392 -21.089476 -4.803235 14.737320 9.279353 -3.074953 -4.655465 1.549776 1.734399 -0.025277 -0.348471 0.470703 0.000000 0.000000 0.000000 1.163423 -7.954157 -1.852362 -0.722923 -0.688226 2.174955 -0.750423 -1.126807 1.012151 1.338759 1.368259 -0.341048 0.000000 0.000000 0.000000 -1.120355 -0.551000 0.935038 -5.419181 0.651496 1.173794 -1.153990 8.277083 0.549622 0.000000 0.000000 0.000000 -1.275861 -0.226564 0.599845 -0.593225 9.872413 -2.830266 -3.822351 0.064073 -0.355242 42.382987 -65.879169 -27.597615 -0.333435 -28.016832 2.031131 0.000000 0.000000 0.000000 -0.181022 -0.308382 0.460932 3.945063 3.065435 3.326147 0.966022 2.567472 -1.328884 -2.611800 38.390274 66.085195 1.115160 25.320660 1.388192 0.000000 0.000000 0.000000 
0.151594 116.530052 1.301643 0.000000 0.000000 0.000000 0.997463 -7.163892 -1.035326 -14.790134 19.521499 14.062077 14.635991 9.818498 3.064697 -1.312402 2.857557 -12.522461 1.997126 0.303553 -0.806449 0.000000 0.000000 0.000000 1.640135 -6.151208 -1.098581 -13.471486 -20.991673 -5.048816 14.915590 9.261111 -3.083869 -4.670921 1.525331 1.472614 -0.065200 -0.350279 0.510357 0.000000 0.000000 0.000000 1.136762 -8.108688 -1.747261 -0.784021 -0.760044 2.125195 -0.687208 -1.155770 1.019069 1.277285 1.099741 -0.384480 0.000000 0.000000 0.000000 -1.044541 -0.560817 0.954895 -5.632528 0.792537 0.901962 -1.151286 8.503530 0.468412 0.000000 0.000000 0.000000 -1.125023 -0.263868 0.607943 -0.576619 9.909020 -2.832181 -3.904390 0.118740 -0.254846 42.045292 -66.090188 -28.024982 -0.296867 -28.295985 1.936793 0.000000 0.000000 0.000000 -0.126073 -0.308434 0.513681 3.910052 3.207411 2.675225 0.806875 3.010827 -1.456268 -3.260757 39.233071 66.626924 0.938149 24.128366 1.207102 0.000000 0.000000 0.000000 
0.331305 116.474106 1.349094 0.000000 0.000000 0.000000 1.032577 -7.495542 -0.735311 -14.603254 19.765278 13.734531 14.669370 9.839635 3.135014 -1.609224 2.903196 -12.302522 2.061394 0.282085 -0.829598 0.000000 0.000000 0.000000 1.644227 -6.302694 -0.815050 -13.750095 -20.871718 -5.510670 15.195139 9.300582 -3.076843 -4.676139 1.587710 1.406507 -0.127089 -0.330959 0.518073 0.000000 0.000000 0.000000 1.077187 -8.351760 -1.531378 -0.806787 -0.815481 2.031525 -0.592565 -1.182187 1.015800 1.134108 0.738128 -0.439656 0.000000 0.000000 0.000000 -0.921011 -0.567126 0.942462 -5.909080 0.898533 0.568809 -1.105154 8.708164 0.278593 0.000000 0.000000 0.000000 -0.927659 -0.311208 0.596477 -0.572935 9.932310 -2.732398 -3.882759 0.176607 -0.193548 41.142932 -66.483449 -28.881923 -0.321653 -28.607388 1.780199 0.000000 0.000000 0.000000 -0.026279 -0.317932 0.555993 3.878496 3.334938 2.032328 0.491620 3.212369 -1.402346 -3.942430 40.598849 67.104846 0.753683 22.541052 0.977276 0.000000 0.000000 0.000000 
0.552914 116.402321 1.355869 0.000000 0.000000 0.000000 1.084172 -7.784704 -0.370561 -14.435274 20.087392 13.351566 14.736678 9.852544 3.202966 -1.908894 2.956050 -11.949730 2.131161 0.260054 -0.867932 0.000000 0.000000 0.000000 1.670940 -6.450558 -0.462392 -14.073730 -20.735290 -6.081147 15.417245 9.396452 -3.042325 -4.693572 1.717530 1.512384 -0.246246 -0.301001 0.498565 0.000000 0.000000 0.000000 0.995125 -8.618077 -1.246697 -0.792776 -0.796045 1.920717 -0.468294 -1.169026 0.974432 0.914625 0.504735 -0.528634 0.000000 0.000000 0.000000 -0.767999 -0.539728 0.872552 -6.243117 0.940969 0.282926 -1.073511 8.803595 0.040510 0.000000 0.000000 0.000000 -0.731572 -0.318190 0.550494 -0.588401 9.909031 -2.541876 -3.788691 0.222050 -0.257867 39.740298 -67.072485 -29.983065 -0.351870 -28.833497 1.633198 0.000000 0.000000 0.000000 0.130538 -0.302203 0.551693 3.865748 3.425037 1.650265 0.160653 3.201105 -1.301257 -4.796009 42.110172 67.404576 0.575546 21.216646 0.799085 0.000000 0.000000 0.000000 
0.794916 116.286987 1.325890 0.000000 0.000000 0.000000 1.131555 -8.055355 0.007778 -14.336212 20.436008 12.974834 14.825346 9.786511 3.245579 -2.189287 2.971534 -11.541208 2.161159 0.240299 -0.893821 0.000000 0.000000 0.000000 1.713194 -6.587030 -0.094377 -14.357652 -20.565773 -6.650925 15.506527 9.467559 -2.977220 -4.790910 1.844469 1.644372 -0.378426 -0.269057 0.465839 0.000000 0.000000 0.000000 0.949310 -8.804824 -0.951657 -0.746862 -0.633690 1.816394 -0.312548 -1.076774 0.880243 0.770038 0.461542 -0.502871 0.000000 0.000000 0.000000 -0.619098 -0.436506 0.749023 -6.621388 0.898369 0.126891 -1.109722 8.724681 -0.193342 0.000000 0.000000 0.000000 -0.578384 -0.252303 0.474282 -0.619588 9.799941 -2.292076 -3.777618 0.279702 -0.438816 38.189753 -67.817898 -30.977848 -0.352075 -28.812634 1.550525 0.000000 0.000000 0.000000 0.305898 -0.230632 0.479199 3.880011 3.505289 1.622888 -0.072619 3.128288 -1.040184 -6.069725 43.386960 67.448289 0.419938 20.220584 0.706513 0.000000 0.000000 0.000000 
1.043835 116.168274 1.251251 0.000000 0.000000 0.000000 1.118590 -8.363667 0.341415 -14.307158 20.774177 12.662929 14.925483 9.618318 3.246784 -2.414066 2.958493 -11.191005 2.141237 0.220984 -0.900102 0.000000 0.000000 0.000000 1.734897 -6.787545 0.219979 -14.554925 -20.337534 -7.126112 15.503556 9.399408 -2.862652 -4.909481 1.898370 1.666720 -0.452059 -0.242239 0.438554 0.000000 0.000000 0.000000 0.907342 -8.908074 -0.703434 -0.654224 -0.317606 1.723493 -0.151833 -0.887613 0.736148 0.720558 0.687215 -0.461950 0.000000 0.000000 0.000000 -0.509244 -0.244462 0.572843 -7.034763 0.753594 0.129641 -1.280575 8.425820 -0.371781 0.000000 0.000000 0.000000 -0.469654 -0.078693 0.373307 -0.658737 9.589323 -1.988419 -3.925755 0.474289 -0.617017 36.935344 -68.677101 -31.540451 -0.291895 -28.463044 1.550715 0.000000 0.000000 0.000000 0.474696 -0.064641 0.350261 3.886558 3.585433 1.858248 0.040078 3.152700 -0.709978 -8.032488 44.472837 67.305121 0.270457 19.348345 0.621795 0.000000 0.000000 0.000000 
1.323341 116.093269 1.121548 0.000000 0.000000 0.000000 1.044236 -8.779372 0.560919 -14.323011 21.098449 12.474072 15.065726 9.359361 3.197610 -2.547935 2.996299 -10.974572 2.041819 0.204724 -0.880596 0.000000 0.000000 0.000000 1.647822 -7.169073 0.418374 -14.713414 -20.023043 -7.482519 15.530470 9.196282 -2.676094 -4.914992 1.906613 1.602132 -0.420792 -0.230485 0.417431 0.000000 0.000000 0.000000 0.880496 -9.036012 -0.554719 -0.540748 0.131039 1.645866 -0.004596 -0.613248 0.553795 0.854814 1.160129 -0.453126 0.000000 0.000000 0.000000 -0.437534 0.033908 0.376603 -7.443807 0.510495 0.296836 -1.612962 7.920504 -0.464915 0.000000 0.000000 0.000000 -0.394796 0.210477 0.260553 -0.694986 9.312127 -1.618272 -4.158030 0.801995 -0.784886 36.305338 -69.559548 -31.560494 -0.198380 -27.776337 1.602422 0.000000 0.000000 0.000000 0.600351 0.206944 0.179725 3.894239 3.634593 2.215511 0.321834 3.191211 -0.334019 -10.772766 45.911545 67.098344 0.114157 18.197005 0.514999 0.000000 0.000000 0.000000 
1.620715 116.066200 0.975361 0.000000 0.000000 0.000000 0.897726 -9.422348 0.613170 -14.335643 21.420062 12.434341 15.236976 9.125870 3.127767 -2.663627 3.213712 -10.841298 1.900570 0.190024 -0.840354 0.000000 0.000000 0.000000 1.425320 -7.840576 0.461350 -14.887596 -19.594204 -7.733302 15.576414 8.948601 -2.393735 -4.674482 2.012446 1.603178 -0.331153 -0.231385 0.392528 0.000000 0.000000 0.000000 0.814964 -9.316007 -0.545378 -0.397542 0.647510 1.588784 0.110766 -0.291195 0.368218 1.068681 1.502520 -0.314077 0.000000 0.000000 0.000000 -0.398990 0.366965 0.201682 -7.781459 0.197880 0.638509 -2.038474 7.349702 -0.508535 0.000000 0.000000 0.000000 -0.344047 0.567453 0.153482 -0.715605 8.968760 -1.187322 -4.297187 1.187284 -0.896450 36.421963 -70.362123 -31.148986 -0.126309 -26.920176 1.639434 0.000000 0.000000 0.000000 0.656199 0.544120 0.007389 3.923929 3.632704 2.481371 0.653485 3.353639 -0.072761 -14.272690 48.243866 67.066310 -0.046230 16.682542 0.339787 0.000000 0.000000 0.000000 
1.943395 116.085419 0.861095 0.000000 0.000000 0.000000 0.668517 -10.374113 0.480569 -14.230059 21.774489 12.505071 15.434452 9.042136 3.079697 -2.864257 3.745922 -10.673201 1.781850 0.175961 -0.798843 0.000000 0.000000 0.000000 1.091989 -8.886464 0.333579 -14.994538 -19.040272 -7.858384 15.534430 8.744075 -2.034746 -4.189415 2.347566 1.725292 -0.243993 -0.228507 0.343862 0.000000 0.000000 0.000000 0.636330 -10.012542 -0.710507 -0.232227 1.140678 1.554661 0.168027 0.024604 0.201493 1.193963 1.724680 -0.195958 0.000000 0.000000 0.000000 -0.357638 0.692452 0.064083 -7.985971 -0.089817 1.108377 -2.470867 6.865095 -0.555399 0.000000 0.000000 0.000000 -0.308914 0.929014 0.063014 -0.728401 8.564104 -0.706352 -4.261736 1.472855 -0.987547 37.328394 -70.992447 -30.399031 -0.080789 -26.205761 1.633207 0.000000 0.000000 0.000000 0.654752 0.885234 -0.142352 3.992733 3.568012 2.508686 1.062021 3.561020 -0.009386 -18.208528 52.048736 67.300115 -0.192822 15.338011 0.181027 0.000000 0.000000 0.000000 
2.276836 116.115448 0.799995 0.000000 0.000000 0.000000 0.332463 -11.712069 0.163650 -13.900950 22.112480 12.617064 15.613961 9.149747 3.106100 -3.229437 4.678110 -10.459174 1.718719 0.162819 -0.762852 0.000000 0.000000 0.000000 0.674133 -10.356985 0.030086 -14.960235 -18.402304 -7.825220 15.334424 8.600817 -1.644890 -3.544633 2.970281 1.883060 -0.177987 -0.206297 0.274645 0.000000 0.000000 0.000000 0.286349 -11.215012 -1.054471 -0.064912 1.539822 1.534453 0.164517 0.288096 0.065846 1.355498 1.676860 -0.009396 0.000000 0.000000 0.000000 -0.272223 0.960533 -0.020321 -7.998592 -0.266723 1.646746 -2.776275 6.635547 -0.646149 0.000000 0.000000 0.000000 -0.292468 1.213995 -0.013947 -0.741099 8.110500 -0.163466 -4.083597 1.584391 -1.068798 38.875535 -71.363982 -29.433529 -0.073823 -25.851679 1.561357 0.000000 0.000000 0.000000 0.622087 1.153503 -0.252701 4.129160 3.516351 2.239250 1.355800 3.503175 -0.048287 -21.961276 57.253084 67.415408 -0.291726 14.485271 0.097735 0.000000 0.000000 0.000000 
